
Douglas Fairbanks Jr. is the title character, a young king exiled by evil conspirators. Forced to live far from his homeland, Fairbanks is harassed by the wicked Henry Daniell, who has been appointed to keep the young monarch from reclaiming his throne. After falling in love with commoner Paula Croset (later billed as Mara Corday), Fairbanks decides to take on the corrupt elements that have ousted him, and he dispatches Daniell in an exciting sword duel stage in an old windmill. Many of Fairbanks' more dangerous stunts were handled by David Sharpe, who received credit as second-unit director. Filmed in black and white, The Exile was originally released to theatres in "Sepiatone", a process which enhanced the film stock with a light brown tint. 

 
http://www.imdb.com/title/tt0039360/



Director:
Max Ophüls



	Douglas Fairbanks Jr.	... 	Charles II Stuart
	Maria Montez	... 	Countess
	Rita Corday	... 	Katie (as Paule Croset)
	Henry Daniell	... 	Colonel Ingram
	Nigel Bruce	... 	Sir Edward Hyde


 Video
      Format : MPEG-4 Visual
      Format profile : Streaming Video@L1
      Format settings, BVOP : Yes
      Format settings, QPel : No
      Format settings, GMC : No warppoints
      Format settings, Matrix : Custom
      Codec ID : XVID
      Codec ID/Hint : XviD
      Duration : 1h 27mn
      Bit rate : 1 733 Kbps
      Width : 704 pixels
      Height : 528 pixels
      Display aspect ratio : 4/3
      Frame rate : 25.000 fps
      Resolution : 24 bits
      Colorimetry : 4:2:0
      Scan type : Progressive
      Bits/(Pixel*Frame) : 0.187
      Stream size : 1.06 GiB (93%)
      Writing library : XviD 50
   Audio
      Format : MPEG Audio
      Format version : Version 1
      Format profile : Layer 3
      Codec ID : 55
      Codec ID/Hint : MP3
      Duration : 1h 27mn
      Bit rate mode : Constant
      Bit rate : 128 Kbps
      Minimum bit rate : 128 Kbps
      Channel(s) : 2 channels
      Sampling rate : 48.0 KHz
      Resolution : 16 bits
      Stream size : 80.2 MiB (7%)
      Alignment : Aligned on interleaves
      Interleave, duration : 80 ms (2.00 video frames)
      Interleave, preload duration : 504 ms
      Writing library : LAME3.98r
      Encoding settings : CBR
      Language : English